<?xml version="1.0" encoding="utf-8"?>
<!-- Generator: Adobe Illustrator 24.0.1, SVG Export Plug-In . SVG Version: 6.00 Build 0)  -->
<svg version="1.1" id="Layer_1" xmlns="http://www.w3.org/2000/svg" xmlns:xlink="http://www.w3.org/1999/xlink" x="0px" y="0px"
	 viewBox="0 0 251.52 96.55" style="enable-background:new 0 0 251.52 96.55;" xml:space="preserve">
<g>
	<g>
		<path style="fill:#151823;" d="M170.42,90.49c-0.45,0-1.05,0.05-1.83,0.16c-0.91,0.12-1.5,0.19-1.75,0.21
			c-1.9,0.15-4.64,0.23-8.2,0.23c0.6-1.01,2.12-3.48,5.86-9.35c6.34-9.96,6.34-10,6.34-10.25c0-1.2-0.11-2.24-0.31-3.08
			c-0.11-0.49-0.5-0.79-1-0.79h-11.1c-0.48,0-1.23-0.05-2.21-0.14c-1.04-0.09-1.8-0.14-2.33-0.14c-0.79,0-0.99,0.54-1.03,0.7
			c-0.03,0.13-0.11,0.46-0.37,1.95c-0.29,1.69-0.29,1.81-0.29,1.9c0,0.59,0.39,0.98,0.98,0.98h10.22c-0.49,0.9-1.9,3.26-5.7,9.24
			c-6.1,9.59-6.1,9.72-6.1,9.98c0,0.77,0.15,1.88,0.45,3.44c0.06,0.25,0.31,0.84,1.22,0.84h9.38c0.78,0,1.96,0.03,3.51,0.08
			c1.59,0.05,2.75,0.08,3.54,0.08c0.63,0,1.06-0.41,1.06-1.02c0-0.44,0.08-1.12,0.25-2.03c0.18-0.99,0.27-1.72,0.27-2.22
			C171.26,90.82,170.91,90.49,170.42,90.49z"/>
		<path style="fill:#151823;" d="M227.63,67.68c-0.27,0-0.65,0.02-1.17,0.06c-0.48,0.04-0.85,0.06-1.08,0.06
			c-0.22,0-0.57-0.02-1.03-0.06c-0.5-0.04-0.87-0.06-1.12-0.06c-0.16,0-0.98,0.06-0.98,1.24c0,1.71,0.06,4.3,0.19,7.7
			c0.12,3.41,0.19,5.99,0.19,7.68c0,1.01-0.01,1.76-0.03,2.32c-6.12-8.06-10.74-14.22-13.73-18.34c-0.38-0.5-0.69-0.8-1.08-0.8
			c-0.29,0-0.66,0.04-1.13,0.13c-0.61,0.11-0.87,0.14-0.99,0.15c-0.48,0.04-1.14,0.06-1.99,0.08c-0.37,0.02-0.64,0.12-0.83,0.33
			c-0.15,0.16-0.22,0.38-0.21,0.62l0.02,0.24c0.1,2.14,0.17,3.77,0.2,4.85c0.12,4.12,0.18,7.01,0.18,8.59
			c0,1.44-0.07,3.64-0.21,6.54c-0.14,2.91-0.21,5.12-0.21,6.57c0,0.45,0.28,0.98,1.08,0.98c0.26,0,0.62-0.02,1.11-0.06
			c0.45-0.04,0.79-0.06,1.01-0.06c0.21,0,0.53,0.02,0.98,0.06c0.48,0.04,0.83,0.06,1.08,0.06c0.16,0,0.98-0.06,0.98-1.24
			c0-2.01-0.03-5.09-0.1-9.14c-0.06-3.68-0.09-6.56-0.1-8.55c0.19,0.24,0.42,0.54,0.71,0.91c5.86,7.71,10.09,13.31,12.93,17.14
			c0.29,0.38,0.74,0.88,1.32,0.88c0.23,0,0.57-0.02,1.02-0.06c0.41-0.04,0.72-0.06,0.92-0.06c0.18,0,0.46,0.02,0.83,0.06
			c0.42,0.04,0.73,0.06,0.95,0.06c0.52,0,1.08-0.32,1.08-1.24c0-1.44-0.01-3.59-0.04-6.45c-0.03-2.86-0.04-5.01-0.04-6.44
			c0-1.52,0.05-3.82,0.16-6.85c0.11-3.06,0.16-5.37,0.16-6.87C228.63,68.09,228.23,67.68,227.63,67.68z"/>
		<path style="fill:#151823;" d="M251.2,90.87c-0.13-0.12-0.36-0.26-0.7-0.22l-0.3,0.02c-4.22,0.31-6.82,0.47-7.72,0.47l-2.17,0.02
			c-1.71,0-2.06-0.25-2.1-0.28c-0.1-0.08-0.42-0.47-0.42-2.11v-2.92c0-0.69,0-1.15-0.02-1.46c0.04-0.22,0.12-0.29,0.38-0.31
			c0.56-0.05,1.93-0.08,4.08-0.08c2.55,0,4.2,0.04,4.92,0.12c1.38,0.13,1.7,0.14,1.81,0.14c1.12,0,1.18-0.78,1.18-0.94
			c0-0.41,0.05-1.04,0.14-1.89c0.1-0.9,0.15-1.56,0.15-2c0-0.37-0.16-0.59-0.29-0.71c-0.14-0.12-0.38-0.26-0.77-0.22
			c-1.08,0.1-2.02,0.17-2.81,0.2c-2.03,0.09-4.36,0.14-6.93,0.14l-0.7,0c-0.28,0.01-0.49,0.02-0.64,0.02
			c-0.41,0-0.45-0.12-0.46-0.18c-0.01-0.03-0.04-0.24-0.04-1.25v-2.94c0-1.46,0.25-1.73,0.26-1.74c0.03-0.03,0.29-0.26,1.63-0.26
			c1.13,0,2.84,0.06,5.09,0.19c2.27,0.13,3.99,0.19,5.12,0.19c0.61,0,1.02-0.42,1.02-1.04c0-0.46-0.14-1.55-0.42-3.32
			c-0.05-0.32-0.29-1.08-1.59-1.08c-0.89,0-2.19,0.03-3.98,0.08c-1.74,0.05-3.07,0.08-3.94,0.08c-0.92,0-2.3-0.03-4.13-0.08
			c-1.87-0.05-3.24-0.08-4.16-0.08c-0.36,0-0.64,0.11-0.84,0.31c-0.13,0.13-0.28,0.37-0.26,0.77l0.02,0.27
			c0.12,2.08,0.19,3.66,0.22,4.71c0.16,4.07,0.24,6.89,0.24,8.37c0,1.45-0.08,3.68-0.25,6.61c-0.16,2.95-0.25,5.2-0.25,6.68
			c0,0.7,0.48,1.16,1.24,1.16c0.97,0,2.43-0.03,4.36-0.08c1.93-0.05,3.38-0.08,4.33-0.08c3.35,0,5.85,0.12,7.44,0.35
			c0.53,0.08,0.73,0.08,0.83,0.08c0.54,0,0.94-0.29,1.08-0.78l0.01-0.07c0.14-0.88,0.23-1.58,0.28-2.07c0.03-0.13,0.1-0.42,0.2-0.85
			c0.12-0.45,0.18-0.79,0.18-1.06C251.52,91.35,251.41,91.06,251.2,90.87z"/>
		<g>
			<path style="fill:#151823;" d="M186.5,67.36c-3.87,0-7.17,1.5-9.79,4.45c-2.53,2.84-3.82,6.25-3.82,10.15
				c0,3.94,1.27,7.36,3.78,10.17c2.61,2.93,5.92,4.42,9.83,4.42c3.9,0,7.21-1.49,9.83-4.44c2.51-2.82,3.78-6.24,3.78-10.15
				c0-3.91-1.28-7.33-3.8-10.15C193.69,68.86,190.39,67.36,186.5,67.36z M186.46,73.01c2.31,0,4.17,0.9,5.71,2.74
				c1.46,1.74,2.2,3.81,2.2,6.16c0,2.38-0.73,4.47-2.19,6.22c-1.53,1.87-3.4,2.78-5.72,2.78c-2.28,0-4.12-0.91-5.65-2.78
				c-1.44-1.75-2.17-3.82-2.17-6.16c0-2.35,0.73-4.43,2.17-6.18C182.34,73.91,184.19,73.01,186.46,73.01z"/>
			<path style="fill:#EDEDED;" d="M190.66,79.8c-0.34-1.45-1.5-2.63-2.91-3.06c-0.19-0.06-0.39-0.08-0.59-0.12
				c-0.37-0.07-0.71-0.09-1.09-0.02c-0.23,0.04-0.47,0.07-0.7,0.14c-1.41,0.43-2.57,1.61-2.91,3.06c-0.26,1.11,0.03,2.25,0.5,3.26
				c0.41,0.87,0.9,1.71,1.47,2.49c0.27,0.37,0.54,0.73,0.86,1.05c0.21,0.2,0.41,0.41,0.62,0.61c0.13,0.12,0.25,0.27,0.39,0.38
				l0.01,0.01l0.25,0.24l0.49-0.48c0.24-0.23,0.49-0.45,0.72-0.69c0.23-0.23,0.44-0.49,0.64-0.75c0.68-0.87,1.28-1.85,1.74-2.85
				C190.63,82.05,190.92,80.91,190.66,79.8z M186.57,82.78c-1.11,0-2.01-0.9-2.01-2.01c0-1.11,0.9-2.01,2.01-2.01
				c1.11,0,2.01,0.9,2.01,2.01C188.58,81.88,187.68,82.78,186.57,82.78z"/>
		</g>
	</g>
	<g>
		<path style="fill:#EDEDED;" d="M137.46,28.05c-0.21-3.97-1.1-7.83-2.66-11.5c-1.92-4.54-4.66-8.21-8.15-10.91
			C121.78,1.9,114.32,0,104.47,0c-1.01,0-2.51,0.01-4.48,0.04c-1.96,0.03-3.43,0.04-4.38,0.04c-1.04,0-2.59-0.01-4.66-0.04
			C88.88,0.01,87.32,0,86.28,0c-1.04,0-1.66,0.54-1.66,1.45c0,3.28,0.11,8.24,0.34,14.75c0.22,6.53,0.34,11.48,0.34,14.71
			c0,3.05-0.12,7.73-0.36,13.91c-0.24,6.17-0.36,10.85-0.36,13.91c0,1.01,0.61,1.63,1.63,1.63c1.33,0,3.35-0.06,6-0.17
			c2.65-0.11,4.65-0.17,5.95-0.17c1.44,0,3.65,0.06,6.59,0.17c2.93,0.11,5.15,0.17,6.63,0.17c7.81,0,14.29-3.24,19.27-9.63
			c3.5-4.48,5.67-9.64,6.49-15.42c0.26-1.76,0.38-3.58,0.38-5.45C137.5,29.25,137.48,28.65,137.46,28.05z M120.88,45.24
			c-1.81,2.19-3.87,3.71-6.12,4.51c-1.84,0.65-4.38,0.98-7.53,0.98c-2.08,0-3.63,0.01-4.67,0.01c-0.52,0-0.91,0.01-1.17,0.01
			c-0.13,0-0.25,0-0.37,0.02c-4.23-0.22-4.44-1.11-4.44-1.28c0-2.13-0.05-5.37-0.15-9.64c-0.1-4.25-0.15-7.48-0.15-9.61
			c0-2.16,0.05-5.43,0.15-9.72c0.1-4.31,0.15-7.59,0.15-9.74c0-0.17,0.2-0.99,4.08-1.23c0.31,0.04,0.81,0.04,1.61,0.05
			c1.05,0.01,2.62,0.01,4.7,0.01c5.83,0,10.54,1.94,14.02,5.76c3.35,3.7,5.04,8.57,5.04,14.48
			C126.02,35.91,124.29,41.09,120.88,45.24z"/>
		<path style="fill:#EDEDED;" d="M248.98,45.42c-2.59-3.43-2.76-3.43-3.11-3.43c-0.26,0-0.42,0-2.68,2.13
			c-1.63,1.55-3.25,2.76-4.82,3.6c-2.36,1.27-4.85,1.92-7.39,1.92c-5.1,0-9.13-2.03-11.97-6.04c-2.54-3.61-3.83-8.17-3.83-13.56
			c0-5.39,1.3-9.91,3.86-13.44c2.85-3.91,6.89-5.89,12.02-5.89c2.7,0,5.19,0.64,7.41,1.91c1.35,0.78,2.83,1.98,4.37,3.55
			c1.94,1.98,2.49,2.15,2.86,2.15c0.37,0,0.75,0,3.05-3.63c1.96-3.1,2.23-3.94,2.23-4.36c0-0.5-0.25-1.08-0.77-1.76
			c-4.57-5.64-11.09-8.5-19.4-8.5c-8.2,0-14.89,3.09-19.88,9.18c-4.67,5.63-7.04,12.72-7.04,21.07c0,8.35,2.33,15.41,6.92,20.98
			c4.94,6.01,11.62,9.06,19.84,9.06c7.9,0,14.61-3.14,19.96-9.33c0.61-0.71,0.9-1.26,0.9-1.73
			C251.52,49.04,251.52,48.78,248.98,45.42z"/>
		<g>
			<path style="fill:#EDEDED;" d="M151.53,23.59c0.81-0.8,2-1.27,3.35-1.35c0.77-1.97,1.87-3.81,3.26-5.51
				c3.3-4.05,7.48-6.1,12.42-6.1c5,0,9.23,2.03,12.55,6.03c2.84,3.37,4.44,7.33,4.74,11.79c0.55-0.17,1.16-0.26,1.81-0.26h9.02
				c-0.4-7.26-3.02-13.64-7.8-18.99c-5.41-6.1-12.22-9.2-20.24-9.2c-7.99,0-14.78,3.09-20.2,9.19c-4.79,5.37-7.43,11.75-7.83,18.99
				h4.48L151.53,23.59z M187.64,39.27c-0.62,0.56-1.4,0.94-2.29,1.12c-0.62,1.13-1.36,2.21-2.2,3.23c-3.32,4.05-7.56,6.1-12.59,6.1
				c-4.94,0-9.12-2.05-12.42-6.1c-0.13-0.16-0.26-0.32-0.38-0.48c-0.55-0.7-1.05-1.44-1.49-2.19c-1.17-1.96-1.98-4.08-2.42-6.34
				l-0.37-0.97l-0.17,0.19c-1.17,1.16-2.99,1.29-3.72,1.29h-6.7c0.86,6.11,3.37,11.51,7.48,16.12c5.39,6.05,12.21,9.11,20.28,9.11
				c8.04,0,14.87-3.08,20.29-9.15c4.1-4.62,6.61-10.01,7.47-16.08h-6.39L187.64,39.27z"/>
			<path style="fill:#151823;" d="M200.78,31.66L200.78,31.66c0,0.62-0.5,1.12-1.12,1.12h-8.6l-5.05,4.79
				c-0.46,0.42-1.31,0.65-2.24,0.61c-0.93,0-1.68-0.33-1.96-0.74l-3.83-5.54l-3.36,4.05c-0.47,0.42-1.4,0.7-2.43,0.7
				c-0.93-0.09-1.78-0.46-1.96-0.98l-3.17-9.77l-3.83,14.89c-0.1,0.56-1.03,0.98-2.15,0.98c0,0,0,0-0.09,0
				c-1.03,0-1.96-0.42-2.25-0.93l-4.39-11.49l-2.71,2.84c-0.37,0.37-1.21,0.6-2.05,0.6h-8.32c-0.62,0-1.12-0.5-1.12-1.12v0
				c0-0.62,0.5-1.12,1.12-1.12h6.83l5.14-5.31c0.47-0.46,1.4-0.7,2.34-0.65c1.02,0.09,1.78,0.42,1.96,0.93l3.08,8.1l3.92-15.12
				c0.1-0.56,1.03-0.93,2.15-0.93c1.12-0.05,2.05,0.37,2.34,0.93l4.29,13.03l2.81-3.26c0.37-0.42,1.21-0.75,2.15-0.7
				c1.02,0,1.77,0.33,2.14,0.74l4.02,5.91l3.27-3.07c0.37-0.37,1.13-0.61,1.96-0.61h10C200.28,30.54,200.78,31.04,200.78,31.66z"/>
		</g>
	</g>
	<g>
		<path style="fill:#151823;" d="M76.13,45.81c0,1.93-1.56,3.49-3.49,3.49c-1.91,0-3.47-1.56-3.47-3.49c0-1.91,1.56-3.47,3.47-3.47
			C74.57,42.34,76.13,43.9,76.13,45.81z"/>
		<g>
			<g>
				<path style="fill:#151823;" d="M81.23,45.53c0-0.28-0.02-0.56-0.07-0.85c-0.04-0.28-0.09-0.56-0.15-0.82
					c-0.07-0.3-0.15-0.63-0.28-0.93c-0.07-0.22-0.15-0.43-0.24-0.63c-0.24-0.54-0.54-1.04-0.87-1.52c-0.15-0.2-0.28-0.37-0.43-0.54
					c-0.17-0.2-0.37-0.41-0.56-0.59c-1.56-1.5-3.67-2.43-5.99-2.43c-0.56,0-1.13,0.07-1.67,0.17c-0.26,0.04-0.54,0.11-0.8,0.2
					c-1.04,0.3-2,0.82-2.84,1.5c-0.22,0.15-0.41,0.33-0.61,0.52c-0.17,0.17-0.35,0.35-0.5,0.52c-0.37,0.41-0.72,0.87-0.98,1.35
					c-0.13,0.2-0.24,0.39-0.33,0.61c-0.28,0.54-0.48,1.13-0.63,1.71c-0.04,0.24-0.11,0.48-0.13,0.74c-0.04,0.28-0.07,0.56-0.09,0.85
					c-0.02,0.13-0.02,0.28-0.02,0.43c0,2.21,0.82,4.23,2.21,5.75c0.13,0.13,0.26,0.28,0.39,0.41c0.2,0.2,0.39,0.37,0.61,0.54
					c1.48,1.19,3.34,1.91,5.38,1.91c1.15,0,2.26-0.24,3.26-0.65c0.15-0.04,0.3-0.13,0.46-0.2c0.39-0.17,0.76-0.39,1.11-0.63
					c0.41-0.26,0.78-0.56,1.13-0.91c0.39-0.37,0.74-0.78,1.04-1.22c0.15-0.22,0.3-0.43,0.43-0.67c0.13-0.2,0.24-0.39,0.33-0.61
					c0.04-0.07,0.09-0.13,0.09-0.2c0.11-0.22,0.2-0.43,0.26-0.65c0,0,0.02-0.02,0.02-0.04c0.09-0.22,0.15-0.43,0.2-0.65
					c0.04-0.07,0.04-0.11,0.04-0.17c0.07-0.26,0.13-0.5,0.15-0.76c0.04-0.28,0.07-0.56,0.09-0.85c0,0,0.02-0.02,0-0.04
					c0.02-0.11,0.02-0.24,0.02-0.37C81.25,45.73,81.25,45.62,81.23,45.53z M72.64,52.09c-3.45,0-6.25-2.82-6.25-6.27
					c0-3.45,2.8-6.25,6.25-6.25s6.27,2.8,6.27,6.25C78.91,49.27,76.09,52.09,72.64,52.09z"/>
			</g>
		</g>
		<path style="fill:#151823;" d="M56.52,2.99c-1.37-0.64-2.9-0.93-4.46-0.93c-0.82,0-1.64-0.03-2.45,0.01
			c-0.22,0.01-0.24-0.12-0.34-0.25c-0.07-0.1-0.15-0.2-0.25-0.28c-0.64-0.52-1.55-0.78-2.38-0.97c-1.81-0.42-3.75-0.52-5.6-0.48
			c-0.98,0.03-2.28,0.1-2.94,0.82c-0.4,0.43-0.37,1.07-0.4,1.6c-0.04,0.98-0.17,2.24,0.51,3.08c0.7,0.72,1.53,1.01,2.61,1.03
			c1.83,0.03,3.71-0.19,5.49-0.53c0.24-0.05,0.47-0.09,0.7-0.13c0.51-0.11,1.04-0.2,1.51-0.4c0.23-0.1,0.46-0.23,0.64-0.39
			c0.08-0.08,0.15-0.17,0.2-0.26c0.04-0.08,0.04-0.26,0.15-0.28c0.4-0.05,0.81,0,1.2,0.01c0.53,0.03,1.06,0.05,1.58,0.09
			c0.3,0.02,0.63,0.02,0.93,0.08c1.55,0.3,3.04,1.05,3.86,2.25c1,1.46,1.04,3.25,0.95,4.89c-0.1,1.87-0.16,3.75-0.24,5.62
			c-0.37,8.19-1.67,16.65-6.13,24c-0.06,0.09-1.53,0.33-1.73,0.42c-1.32,0.59-1.7,1.48-2.15,2.61c-1.12,2.8-3.74,5.26-6.34,7.11
			c-2.7,1.93-5.97,3.41-9.48,3.73c-0.46,0.05-0.93,0.07-1.4,0.07c-0.26,0-0.52-0.01-0.78-0.02c-3.75-0.19-7.24-1.74-10.1-3.78
			c-2.61-1.86-5.22-4.31-6.34-7.11c-0.45-1.13-0.83-2.02-2.15-2.61c-0.2-0.09-1.67-0.33-1.73-0.42c-4.46-7.35-5.76-15.82-6.13-24
			c-0.08-1.87-0.15-3.75-0.24-5.62c-0.09-1.64-0.05-3.43,0.95-4.89C4.85,5.85,6.34,5.1,7.89,4.8c0.3-0.06,0.63-0.06,0.93-0.08
			c0.52-0.04,1.05-0.06,1.58-0.09c0.39-0.01,0.8-0.06,1.2-0.01c0.1,0.02,0.1,0.2,0.15,0.28c0.05,0.09,0.12,0.18,0.2,0.26
			c0.18,0.16,0.4,0.29,0.64,0.39c0.48,0.2,1,0.29,1.51,0.4c0.23,0.04,0.47,0.08,0.7,0.13c1.78,0.34,3.66,0.56,5.49,0.53
			c1.09-0.02,1.91-0.3,2.61-1.03c0.68-0.84,0.56-2.1,0.51-3.08c-0.02-0.53,0-1.16-0.4-1.6c-0.66-0.72-1.97-0.79-2.94-0.82
			c-1.86-0.04-3.8,0.07-5.6,0.48c-0.83,0.19-1.74,0.45-2.38,0.97c-0.1,0.08-0.18,0.18-0.25,0.28c-0.1,0.13-0.12,0.26-0.34,0.25
			c-0.82-0.03-1.64-0.01-2.45-0.01c-1.56,0-3.08,0.29-4.46,0.93C1.2,4.6,0.05,7.93,0.01,11.07c-0.06,3.91,0.24,7.91,0.77,11.8
			c0.7,5.15,1.92,10.27,3.83,15.19c0.58,1.49,1.22,2.97,1.94,4.41c0,0.03-1.11,1.62-1.17,1.84c-0.59,2.27,1.73,5.12,3.08,7.05
			c1.29,1.84,2.84,3.56,4.69,5.02c2.06,1.63,4.45,2.93,7.05,3.82c1.54,0.52,3.14,0.91,4.77,1.17c0.37,0.06,3.37,0.37,4.82,0.44
			c0.47,0.03,0.78,0.03,0.78-0.01c0,0.06,0.59,0.03,1.4-0.03c1.55-0.11,3.88-0.35,4.2-0.4c1.63-0.26,3.23-0.65,4.77-1.17
			c2.6-0.89,4.99-2.18,7.05-3.82c1.84-1.46,3.39-3.17,4.69-5.02c1.35-1.93,3.67-4.79,3.08-7.05c-0.06-0.21-1.17-1.81-1.17-1.84
			c0.72-1.44,1.36-2.92,1.94-4.41c1.91-4.92,3.13-10.04,3.83-15.19c0.53-3.88,0.83-7.89,0.77-11.8C61.06,7.93,59.92,4.6,56.52,2.99z
			"/>
		<g>
			<path style="fill:#151823;" d="M78.72,96.55c-1.96,0-3.88-0.1-5.7-0.21c-7.08-0.44-23.53-2.98-23.28-16.99
				c0.04-2.09,0.63-4.26,1.76-6.46c0.42-0.81,0.88-1.6,1.37-2.37c-8.58,1.24-15.02,0.19-19.21-3.12c-4.71-3.72-4.67-8.89-4.67-9.11
				l2.24,0.04l-1.12-0.02l1.12,0.01c0,0.18,0.01,4.33,3.86,7.35c3.96,3.11,10.66,3.88,19.55,2.29c0.56-0.76,1.13-1.51,1.69-2.25
				c0.75-0.98,1.52-2,2.22-3c2.4-3.4,4.94-7.06,7.79-11.18l1.85,1.27c-2.85,4.13-5.4,7.8-7.8,11.2c-0.73,1.03-1.51,2.07-2.27,3.07
				c-0.06,0.08-0.11,0.15-0.17,0.23c0.64-0.15,1.3-0.31,1.96-0.48c1.06-0.27,2.11-0.55,3.18-0.82c6.21-1.62,12.64-3.3,19.12-3.81
				c3.32-0.26,6.08,0.32,8.18,1.71c3.55,2.35,5.41,7.07,6.91,10.86l0.2,0.5c2.32,5.84,2.4,10.46,0.25,14.11
				c-1.64,2.78-4.38,4.32-6.39,5.12C87.26,96.12,82.89,96.55,78.72,96.55z M55.92,70.01c-0.9,1.27-1.74,2.57-2.43,3.91
				c-0.97,1.89-1.48,3.73-1.52,5.47c-0.21,12.08,14.74,14.31,21.18,14.71c5.48,0.34,11.79,0.52,17.35-1.7
				c1.69-0.67,3.97-1.94,5.28-4.17c1.78-3.02,1.65-6.99-0.4-12.15l-0.2-0.5c-1.38-3.5-3.1-7.86-6.06-9.82
				c-1.67-1.11-3.95-1.56-6.77-1.34c-6.29,0.49-12.61,2.14-18.73,3.74c-1.07,0.28-2.13,0.56-3.19,0.83
				C58.89,69.39,57.38,69.73,55.92,70.01z"/>
		</g>
	</g>
</g>
</svg>
