<?xml version="1.0" encoding="utf-8"?>
<!-- Generator: Adobe Illustrator 24.0.1, SVG Export Plug-In . SVG Version: 6.00 Build 0)  -->
<svg version="1.1" id="Layer_1" xmlns="http://www.w3.org/2000/svg" xmlns:xlink="http://www.w3.org/1999/xlink" x="0px" y="0px"
	 viewBox="0 0 144 144" style="enable-background:new 0 0 144 144;" xml:space="preserve">
<g>
	<polygon style="fill:#EA4335;" points="71.85,32.82 72.68,33.65 57.43,48.91 56.6,48.12 	"/>
	<g>
		<path style="fill:#EA4335;" d="M31.61,12.29c8.05-1.04,16.37,0.77,23.23,5.02c3.87,2.3,6.97,5.61,10.14,8.74
			c2.3,2.26,4.6,4.53,6.9,6.79l0.07,0.21c-5.09,5.02-10.17,10.07-15.29,15.12c-3.73-3.59-7.35-7.35-11.11-10.97
			c-3.55-3.31-8.92-4.67-13.55-3.13c-5.29,1.46-9.33,6.55-9.61,12.05c-0.21,2.86,0.56,5.78,2.12,8.19c0.94,1.57,2.37,2.72,3.62,4.04
			c3.03,3.03,6.13,6.03,9.13,9.09c-5.09,5.02-10.24,10-15.29,15.08c-4.01-3.8-7.87-7.77-11.84-11.6C5.38,65.96,2.21,59.55,1.09,52.8
			c-1.18-7.24-0.07-14.87,3.27-21.46c2.82-5.5,7.07-10.27,12.26-13.62C21.16,14.87,26.28,12.85,31.61,12.29z"/>
		<path style="fill:#4285F4;" d="M100.78,12.71c4.35-0.8,8.85-0.91,13.2-0.21c10.21,1.74,19.57,8.08,24.73,17.1
			c5.85,9.89,6.2,22.74,0.98,32.98c-2.16,4.39-5.43,8.12-8.95,11.49c-2.89,2.79-5.64,5.75-8.6,8.46
			c-5.09-5.05-10.24-10.07-15.29-15.15c3.62-3.66,7.28-7.21,10.9-10.87c2.33-2.37,3.8-5.61,3.94-8.92c0.17-3.8-1.32-7.63-4.08-10.24
			c-2.79-2.65-6.69-4.14-10.55-3.83c-3.31,0.17-6.51,1.67-8.85,4.01c-8.74,8.6-17.42,17.28-26.16,25.91
			c-5.12-5.05-10.27-10.1-15.33-15.19l-0.03-0.03c5.09-5.02,10.17-10.07,15.29-15.12c3.69-3.66,7.38-7.31,11.11-10.97
			C87.86,17.3,94.16,14.14,100.78,12.71z"/>
		<path style="fill:#FBBC05;" d="M37.25,67.39c6.44-6.44,12.92-12.82,19.44-19.23c5.05,5.12,10.21,10.14,15.33,15.19
			c-6.48,6.37-12.92,12.75-19.37,19.09c-5.12,5.09-10.27,10.14-15.39,15.19c-4.95-4.81-9.86-9.72-14.77-14.59
			c-0.14-0.17-0.42-0.45-0.52-0.63C27.01,77.39,32.13,72.41,37.25,67.39z"/>
		<path style="fill:#34A853;" d="M72.04,101.63c11.63-11.42,23.16-22.92,34.8-34.31c5.09,5.09,10.17,10.14,15.29,15.15
			c-16.68,16.54-33.4,33.05-50.09,49.53c-11.6-11.42-23.2-22.88-34.73-34.38c5.12-5.09,10.27-10.14,15.39-15.19
			C59.12,88.85,65.57,95.25,72.04,101.63z"/>
	</g>
</g>
</svg>
